<svg width="16" height="16" viewBox="0 0 16 16" fill="none" xmlns="http://www.w3.org/2000/svg">
<path d="M13 7.00011C12.9999 5.80262 12.6415 4.63254 11.9709 3.64043C11.3003 2.64833 10.3482 1.87958 9.23703 1.43311C8.12588 0.98664 6.90655 0.882872 5.73593 1.13516C4.56532 1.38744 3.49697 1.98424 2.66836 2.84876C1.83975 3.71328 1.28878 4.80597 1.08635 5.98623C0.883924 7.16649 1.03929 8.38032 1.53247 9.47154C2.02565 10.5628 2.83407 11.4815 3.85372 12.1094C4.87336 12.7373 6.05758 13.0458 7.254 12.9951C7.14062 12.6732 7.06445 12.3394 7.027 12.0001H7C6.0111 12.0001 5.0444 11.7069 4.22215 11.1575C3.39991 10.6081 2.75904 9.82716 2.38061 8.91353C2.00217 7.9999 1.90315 6.99457 2.09608 6.02466C2.289 5.05476 2.76521 4.16384 3.46447 3.46458C4.16373 2.76532 5.05465 2.28911 6.02455 2.09619C6.99446 1.90326 7.99979 2.00228 8.91342 2.38071C9.82705 2.75915 10.6079 3.40002 11.1574 4.22226C11.7068 5.04451 12 6.01121 12 7.00011V7.02711C12.345 7.06611 12.678 7.14311 12.995 7.25411C12.998 7.17011 13 7.08511 13 7.00011Z" fill="#424141"/>
<path d="M7.11207 10.4981C7.19607 10.1301 7.32407 9.77912 7.49207 9.45212C7.06501 9.53857 6.62275 9.51158 6.20937 9.37385C5.79599 9.23612 5.42593 8.99244 5.13607 8.66712C5.04629 8.574 4.92392 8.5193 4.79467 8.5145C4.66541 8.50971 4.53932 8.55519 4.44289 8.6414C4.34646 8.7276 4.28718 8.84782 4.27752 8.97681C4.26786 9.1058 4.30856 9.23351 4.39107 9.33312C4.73156 9.71454 5.15163 10.0166 5.62162 10.2179C6.09161 10.4192 6.60006 10.5148 7.11107 10.4981H7.11207Z" fill="#424141"/>
<path d="M6 6C6 6.19891 5.92098 6.38968 5.78033 6.53033C5.63968 6.67098 5.44891 6.75 5.25 6.75C5.05109 6.75 4.86032 6.67098 4.71967 6.53033C4.57902 6.38968 4.5 6.19891 4.5 6C4.5 5.80109 4.57902 5.61032 4.71967 5.46967C4.86032 5.32902 5.05109 5.25 5.25 5.25C5.44891 5.25 5.63968 5.32902 5.78033 5.46967C5.92098 5.61032 6 5.80109 6 6Z" fill="#424141"/>
<path d="M8.75 6.75C8.94891 6.75 9.13968 6.67098 9.28033 6.53033C9.42098 6.38968 9.5 6.19891 9.5 6C9.5 5.80109 9.42098 5.61032 9.28033 5.46967C9.13968 5.32902 8.94891 5.25 8.75 5.25C8.55109 5.25 8.36032 5.32902 8.21967 5.46967C8.07902 5.61032 8 5.80109 8 6C8 6.19891 8.07902 6.38968 8.21967 6.53033C8.36032 6.67098 8.55109 6.75 8.75 6.75Z" fill="#424141"/>
<path d="M15 11.5C15 12.4283 14.6313 13.3185 13.9749 13.9749C13.3185 14.6313 12.4283 15 11.5 15C10.5717 15 9.6815 14.6313 9.02513 13.9749C8.36875 13.3185 8 12.4283 8 11.5C8 10.5717 8.36875 9.6815 9.02513 9.02513C9.6815 8.36875 10.5717 8 11.5 8C12.4283 8 13.3185 8.36875 13.9749 9.02513C14.6313 9.6815 15 10.5717 15 11.5ZM12 9.5C12 9.36739 11.9473 9.24021 11.8536 9.14645C11.7598 9.05268 11.6326 9 11.5 9C11.3674 9 11.2402 9.05268 11.1464 9.14645C11.0527 9.24021 11 9.36739 11 9.5V11H9.5C9.36739 11 9.24021 11.0527 9.14645 11.1464C9.05268 11.2402 9 11.3674 9 11.5C9 11.6326 9.05268 11.7598 9.14645 11.8536C9.24021 11.9473 9.36739 12 9.5 12H11V13.5C11 13.6326 11.0527 13.7598 11.1464 13.8536C11.2402 13.9473 11.3674 14 11.5 14C11.6326 14 11.7598 13.9473 11.8536 13.8536C11.9473 13.7598 12 13.6326 12 13.5V12H13.5C13.6326 12 13.7598 11.9473 13.8536 11.8536C13.9473 11.7598 14 11.6326 14 11.5C14 11.3674 13.9473 11.2402 13.8536 11.1464C13.7598 11.0527 13.6326 11 13.5 11H12V9.5Z" fill="#424141"/>
</svg>
